<?xml version="1.0" standalone="no"?>
<!DOCTYPE svg PUBLIC "-//W3C//DTD SVG 1.1//EN" "http://www.w3.org/Graphics/SVG/1.1/DTD/svg11.dtd">
<svg xmlns="http://www.w3.org/2000/svg" xmlns:xlink="http://www.w3.org/1999/xlink" width="810" zoomAndPan="magnify" viewBox="0 0 810 1439.999935" height="1439.9998779296875" preserveAspectRatio="xMidYMid meet" version="1.0"><defs><g/><clipPath id="3126b1fdd5"><path d="M 81 668.066406 L 729 668.066406 L 729 771.566406 L 81 771.566406 Z M 81 668.066406 " clip-rule="nonzero"/></clipPath><clipPath id="f81cdde416"><path d="M 81 720 C 81 748.683594 104.253906 771.933594 132.933594 771.933594 L 677.066406 771.933594 C 705.746094 771.933594 729 748.683594 729 720 C 729 691.316406 705.746094 668.066406 677.066406 668.066406 L 132.933594 668.066406 C 104.253906 668.066406 81 691.316406 81 720 Z M 81 720 " clip-rule="nonzero"/></clipPath><clipPath id="39c9075edd"><path d="M 114 703 L 146.929688 703 L 146.929688 736.558594 L 114 736.558594 Z M 114 703 " clip-rule="nonzero"/></clipPath><clipPath id="529f47756c"><path d="M 0.238281 1 L 32.929688 1 L 32.929688 33.558594 L 0.238281 33.558594 Z M 0.238281 1 " clip-rule="nonzero"/></clipPath><clipPath id="5f51bcceb5"><rect x="0" width="33" y="0" height="34"/></clipPath></defs><g clip-path="url(#3126b1fdd5)"><g clip-path="url(#f81cdde416)"><path fill="#ffffff" d="M 98.65625 629.273438 L 711.332031 629.273438 C 711.910156 629.273438 712.484375 629.304688 713.058594 629.359375 C 713.632812 629.417969 714.203125 629.5 714.769531 629.613281 C 715.335938 629.726562 715.894531 629.867188 716.445312 630.035156 C 717 630.199219 717.539062 630.394531 718.074219 630.617188 C 718.605469 630.835938 719.128906 631.082031 719.636719 631.355469 C 720.144531 631.625 720.640625 631.921875 721.117188 632.242188 C 721.597656 632.5625 722.0625 632.90625 722.507812 633.273438 C 722.953125 633.640625 723.378906 634.027344 723.789062 634.433594 C 724.195312 634.84375 724.582031 635.269531 724.949219 635.714844 C 725.316406 636.160156 725.65625 636.625 725.980469 637.101562 C 726.300781 637.582031 726.59375 638.078125 726.867188 638.585938 C 727.140625 639.09375 727.386719 639.617188 727.605469 640.148438 C 727.828125 640.679688 728.019531 641.222656 728.1875 641.777344 C 728.355469 642.328125 728.496094 642.886719 728.609375 643.453125 C 728.722656 644.019531 728.804688 644.589844 728.863281 645.164062 C 728.917969 645.738281 728.945312 646.3125 728.945312 646.890625 L 728.945312 791.695312 C 728.945312 792.273438 728.917969 792.847656 728.863281 793.421875 C 728.804688 793.996094 728.722656 794.566406 728.609375 795.132812 C 728.496094 795.699219 728.355469 796.257812 728.1875 796.808594 C 728.019531 797.363281 727.828125 797.90625 727.605469 798.4375 C 727.386719 798.972656 727.140625 799.492188 726.867188 800 C 726.59375 800.507812 726.300781 801.003906 725.980469 801.484375 C 725.65625 801.960938 725.316406 802.425781 724.949219 802.871094 C 724.582031 803.316406 724.195312 803.746094 723.789062 804.152344 C 723.378906 804.558594 722.953125 804.945312 722.507812 805.3125 C 722.0625 805.679688 721.597656 806.023438 721.117188 806.34375 C 720.640625 806.664062 720.144531 806.960938 719.636719 807.230469 C 719.128906 807.503906 718.605469 807.75 718.074219 807.96875 C 717.539062 808.191406 717 808.386719 716.445312 808.554688 C 715.894531 808.71875 715.335938 808.859375 714.769531 808.972656 C 714.203125 809.085938 713.632812 809.171875 713.058594 809.226562 C 712.484375 809.28125 711.910156 809.3125 711.332031 809.3125 L 98.65625 809.3125 C 98.078125 809.3125 97.503906 809.28125 96.929688 809.226562 C 96.355469 809.171875 95.785156 809.085938 95.21875 808.972656 C 94.652344 808.859375 94.09375 808.71875 93.542969 808.554688 C 92.992188 808.386719 92.449219 808.191406 91.914062 807.96875 C 91.382812 807.75 90.863281 807.503906 90.351562 807.230469 C 89.84375 806.960938 89.351562 806.664062 88.871094 806.34375 C 88.390625 806.023438 87.929688 805.679688 87.480469 805.3125 C 87.035156 804.945312 86.609375 804.558594 86.203125 804.152344 C 85.792969 803.746094 85.40625 803.316406 85.039062 802.871094 C 84.675781 802.425781 84.332031 801.960938 84.011719 801.484375 C 83.691406 801.003906 83.394531 800.507812 83.121094 800 C 82.851562 799.492188 82.605469 798.972656 82.382812 798.4375 C 82.164062 797.90625 81.96875 797.363281 81.800781 796.808594 C 81.632812 796.257812 81.492188 795.699219 81.378906 795.132812 C 81.269531 794.566406 81.183594 793.996094 81.128906 793.421875 C 81.070312 792.847656 81.042969 792.273438 81.042969 791.695312 L 81.042969 646.890625 C 81.042969 646.3125 81.070312 645.738281 81.128906 645.164062 C 81.183594 644.589844 81.269531 644.019531 81.378906 643.453125 C 81.492188 642.886719 81.632812 642.328125 81.800781 641.777344 C 81.96875 641.222656 82.164062 640.679688 82.382812 640.148438 C 82.605469 639.617188 82.851562 639.09375 83.121094 638.585938 C 83.394531 638.078125 83.691406 637.582031 84.011719 637.101562 C 84.332031 636.625 84.675781 636.160156 85.039062 635.714844 C 85.40625 635.269531 85.792969 634.84375 86.203125 634.433594 C 86.609375 634.027344 87.035156 633.640625 87.480469 633.273438 C 87.929688 632.90625 88.390625 632.5625 88.871094 632.242188 C 89.351562 631.921875 89.84375 631.625 90.351562 631.355469 C 90.863281 631.082031 91.382812 630.835938 91.914062 630.617188 C 92.449219 630.394531 92.992188 630.199219 93.542969 630.035156 C 94.09375 629.867188 94.652344 629.726562 95.21875 629.613281 C 95.785156 629.5 96.355469 629.417969 96.929688 629.359375 C 97.503906 629.304688 98.078125 629.273438 98.65625 629.273438 Z M 98.65625 629.273438 " fill-opacity="1" fill-rule="nonzero"/></g></g><g clip-path="url(#39c9075edd)"><g transform="matrix(1, 0, 0, 1, 114, 703)"><g clip-path="url(#5f51bcceb5)"><g clip-path="url(#529f47756c)"><path fill="#1e1d1d" d="M 4.039062 4.667969 C 4.566406 4.140625 5.132812 3.664062 5.746094 3.238281 C 6.359375 2.816406 7.003906 2.449219 7.679688 2.144531 C 8.359375 1.835938 9.058594 1.59375 9.78125 1.410156 C 10.503906 1.230469 11.238281 1.117188 11.980469 1.066406 C 12.722656 1.019531 13.464844 1.039062 14.203125 1.125 C 14.941406 1.210938 15.667969 1.363281 16.382812 1.578125 C 17.09375 1.796875 17.78125 2.074219 18.441406 2.417969 C 19.105469 2.757812 19.730469 3.15625 20.320312 3.609375 C 20.910156 4.066406 21.453125 4.570312 21.953125 5.121094 C 22.449219 5.675781 22.894531 6.269531 23.285156 6.902344 C 23.679688 7.535156 24.007812 8.199219 24.28125 8.890625 C 24.550781 9.585938 24.757812 10.296875 24.902344 11.027344 C 25.042969 11.757812 25.121094 12.496094 25.128906 13.242188 C 25.140625 13.984375 25.082031 14.726562 24.957031 15.457031 C 24.832031 16.191406 24.644531 16.910156 24.390625 17.609375 C 24.132812 18.308594 23.820312 18.980469 23.445312 19.625 L 31.839844 28.019531 C 32.136719 28.316406 32.363281 28.65625 32.523438 29.039062 C 32.683594 29.425781 32.761719 29.828125 32.761719 30.246094 C 32.761719 30.660156 32.683594 31.0625 32.523438 31.449219 C 32.363281 31.832031 32.136719 32.175781 31.839844 32.46875 C 31.546875 32.765625 31.207031 32.992188 30.820312 33.152344 C 30.433594 33.308594 30.035156 33.390625 29.617188 33.390625 C 29.199219 33.390625 28.796875 33.308594 28.414062 33.152344 C 28.027344 32.992188 27.6875 32.765625 27.390625 32.46875 L 18.992188 24.070312 C 18.351562 24.449219 17.679688 24.761719 16.980469 25.015625 C 16.28125 25.269531 15.5625 25.457031 14.828125 25.582031 C 14.09375 25.707031 13.355469 25.765625 12.613281 25.753906 C 11.867188 25.746094 11.128906 25.667969 10.398438 25.527344 C 9.667969 25.382812 8.957031 25.175781 8.265625 24.90625 C 7.570312 24.632812 6.90625 24.300781 6.273438 23.910156 C 5.640625 23.519531 5.046875 23.074219 4.496094 22.574219 C 3.941406 22.078125 3.441406 21.53125 2.984375 20.945312 C 2.53125 20.355469 2.132812 19.726562 1.792969 19.066406 C 1.449219 18.40625 1.171875 17.71875 0.953125 17.007812 C 0.738281 16.292969 0.585938 15.570312 0.5 14.828125 C 0.414062 14.089844 0.394531 13.347656 0.441406 12.605469 C 0.492188 11.863281 0.605469 11.132812 0.785156 10.410156 C 0.964844 9.6875 1.210938 8.988281 1.515625 8.308594 C 1.824219 7.628906 2.191406 6.984375 2.613281 6.375 C 3.035156 5.761719 3.511719 5.191406 4.039062 4.667969 Z M 4.039062 4.667969 " fill-opacity="1" fill-rule="nonzero"/></g><path fill="#ffffff" d="M 4.390625 13.402344 C 4.390625 13.953125 4.441406 14.496094 4.550781 15.035156 C 4.65625 15.578125 4.816406 16.101562 5.027344 16.609375 C 5.238281 17.117188 5.496094 17.601562 5.800781 18.058594 C 6.109375 18.515625 6.457031 18.941406 6.84375 19.328125 C 7.234375 19.71875 7.65625 20.066406 8.113281 20.371094 C 8.574219 20.679688 9.054688 20.9375 9.566406 21.148438 C 10.074219 21.359375 10.597656 21.515625 11.136719 21.625 C 11.675781 21.730469 12.222656 21.785156 12.773438 21.785156 C 13.324219 21.785156 13.867188 21.730469 14.410156 21.625 C 14.949219 21.515625 15.472656 21.359375 15.980469 21.148438 C 16.488281 20.9375 16.972656 20.679688 17.429688 20.371094 C 17.890625 20.066406 18.3125 19.71875 18.703125 19.328125 C 19.089844 18.941406 19.4375 18.515625 19.746094 18.058594 C 20.050781 17.601562 20.308594 17.117188 20.519531 16.609375 C 20.730469 16.101562 20.890625 15.578125 20.996094 15.035156 C 21.101562 14.496094 21.15625 13.953125 21.15625 13.402344 C 21.15625 12.851562 21.101562 12.304688 20.996094 11.765625 C 20.890625 11.226562 20.730469 10.703125 20.519531 10.191406 C 20.308594 9.683594 20.050781 9.199219 19.746094 8.742188 C 19.4375 8.285156 19.089844 7.863281 18.703125 7.472656 C 18.3125 7.082031 17.890625 6.734375 17.429688 6.429688 C 16.972656 6.125 16.488281 5.867188 15.980469 5.65625 C 15.472656 5.445312 14.949219 5.285156 14.410156 5.179688 C 13.867188 5.070312 13.324219 5.015625 12.773438 5.015625 C 12.222656 5.015625 11.675781 5.070312 11.136719 5.179688 C 10.597656 5.285156 10.074219 5.445312 9.566406 5.65625 C 9.054688 5.867188 8.574219 6.125 8.113281 6.429688 C 7.65625 6.734375 7.234375 7.082031 6.84375 7.472656 C 6.457031 7.863281 6.109375 8.285156 5.800781 8.742188 C 5.496094 9.199219 5.238281 9.683594 5.027344 10.191406 C 4.816406 10.703125 4.65625 11.226562 4.550781 11.765625 C 4.441406 12.304688 4.390625 12.851562 4.390625 13.402344 Z M 4.390625 13.402344 " fill-opacity="1" fill-rule="nonzero"/></g></g></g><g fill="#000000" fill-opacity="1"><g transform="translate(276.316404, 732.374916)"><g><path d="M 3.34375 -24.265625 L 10.1875 -24.265625 C 13.414062 -24.265625 15.75 -23.785156 17.1875 -22.828125 C 18.625 -21.867188 19.34375 -20.347656 19.34375 -18.265625 C 19.34375 -16.828125 18.941406 -15.640625 18.140625 -14.703125 C 17.335938 -13.765625 16.164062 -13.160156 14.625 -12.890625 L 14.625 -12.71875 C 18.3125 -12.082031 20.15625 -10.144531 20.15625 -6.90625 C 20.15625 -4.738281 19.421875 -3.046875 17.953125 -1.828125 C 16.484375 -0.609375 14.429688 0 11.796875 0 L 3.34375 0 Z M 6.15625 -13.875 L 10.8125 -13.875 C 12.800781 -13.875 14.234375 -14.1875 15.109375 -14.8125 C 15.984375 -15.4375 16.421875 -16.492188 16.421875 -17.984375 C 16.421875 -19.335938 15.929688 -20.316406 14.953125 -20.921875 C 13.984375 -21.523438 12.4375 -21.828125 10.3125 -21.828125 L 6.15625 -21.828125 Z M 6.15625 -11.484375 L 6.15625 -2.40625 L 11.21875 -2.40625 C 13.175781 -2.40625 14.648438 -2.785156 15.640625 -3.546875 C 16.640625 -4.304688 17.140625 -5.492188 17.140625 -7.109375 C 17.140625 -8.609375 16.628906 -9.710938 15.609375 -10.421875 C 14.597656 -11.128906 13.054688 -11.484375 10.984375 -11.484375 Z M 6.15625 -11.484375 "/></g></g></g><g fill="#000000" fill-opacity="1"><g transform="translate(298.344151, 732.374916)"><g><path d="M 14.109375 0 L 13.5625 -2.59375 L 13.4375 -2.59375 C 12.519531 -1.445312 11.609375 -0.671875 10.703125 -0.265625 C 9.804688 0.128906 8.6875 0.328125 7.34375 0.328125 C 5.53125 0.328125 4.113281 -0.132812 3.09375 -1.0625 C 2.070312 -1.988281 1.5625 -3.3125 1.5625 -5.03125 C 1.5625 -8.707031 4.5 -10.632812 10.375 -10.8125 L 13.46875 -10.90625 L 13.46875 -12.03125 C 13.46875 -13.457031 13.160156 -14.507812 12.546875 -15.1875 C 11.929688 -15.875 10.945312 -16.21875 9.59375 -16.21875 C 8.082031 -16.21875 6.367188 -15.753906 4.453125 -14.828125 L 3.609375 -16.9375 C 4.503906 -17.425781 5.484375 -17.804688 6.546875 -18.078125 C 7.617188 -18.359375 8.691406 -18.5 9.765625 -18.5 C 11.929688 -18.5 13.535156 -18.015625 14.578125 -17.046875 C 15.628906 -16.085938 16.15625 -14.546875 16.15625 -12.421875 L 16.15625 0 Z M 7.890625 -1.9375 C 9.597656 -1.9375 10.941406 -2.40625 11.921875 -3.34375 C 12.898438 -4.289062 13.390625 -5.613281 13.390625 -7.3125 L 13.390625 -8.953125 L 10.640625 -8.828125 C 8.453125 -8.753906 6.875 -8.414062 5.90625 -7.8125 C 4.9375 -7.207031 4.453125 -6.269531 4.453125 -5 C 4.453125 -4 4.753906 -3.238281 5.359375 -2.71875 C 5.960938 -2.195312 6.804688 -1.9375 7.890625 -1.9375 Z M 7.890625 -1.9375 "/></g></g></g><g fill="#000000" fill-opacity="1"><g transform="translate(317.251162, 732.374916)"><g><path d="M 15.375 0 L 15.375 -11.765625 C 15.375 -13.253906 15.035156 -14.363281 14.359375 -15.09375 C 13.679688 -15.820312 12.625 -16.1875 11.1875 -16.1875 C 9.28125 -16.1875 7.882812 -15.671875 7 -14.640625 C 6.113281 -13.609375 5.671875 -11.910156 5.671875 -9.546875 L 5.671875 0 L 2.921875 0 L 2.921875 -18.203125 L 5.15625 -18.203125 L 5.609375 -15.703125 L 5.75 -15.703125 C 6.3125 -16.597656 7.097656 -17.289062 8.109375 -17.78125 C 9.128906 -18.28125 10.265625 -18.53125 11.515625 -18.53125 C 13.710938 -18.53125 15.363281 -18 16.46875 -16.9375 C 17.570312 -15.882812 18.125 -14.195312 18.125 -11.875 L 18.125 0 Z M 15.375 0 "/></g></g></g><g fill="#000000" fill-opacity="1"><g transform="translate(338.116933, 732.374916)"><g><path d="M 10.1875 0.328125 C 7.5625 0.328125 5.523438 -0.476562 4.078125 -2.09375 C 2.628906 -3.71875 1.90625 -6.015625 1.90625 -8.984375 C 1.90625 -12.023438 2.640625 -14.375 4.109375 -16.03125 C 5.578125 -17.695312 7.664062 -18.53125 10.375 -18.53125 C 11.25 -18.53125 12.125 -18.4375 13 -18.25 C 13.875 -18.0625 14.5625 -17.835938 15.0625 -17.578125 L 14.21875 -15.234375 C 13.601562 -15.484375 12.9375 -15.6875 12.21875 -15.84375 C 11.5 -16.007812 10.863281 -16.09375 10.3125 -16.09375 C 6.613281 -16.09375 4.765625 -13.734375 4.765625 -9.015625 C 4.765625 -6.773438 5.210938 -5.054688 6.109375 -3.859375 C 7.015625 -2.671875 8.351562 -2.078125 10.125 -2.078125 C 11.644531 -2.078125 13.203125 -2.40625 14.796875 -3.0625 L 14.796875 -0.609375 C 13.578125 0.015625 12.039062 0.328125 10.1875 0.328125 Z M 10.1875 0.328125 "/></g></g></g><g fill="#000000" fill-opacity="1"><g transform="translate(354.301601, 732.374916)"><g><path d="M 18.625 -9.109375 C 18.625 -6.148438 17.875 -3.835938 16.375 -2.171875 C 14.882812 -0.503906 12.820312 0.328125 10.1875 0.328125 C 8.5625 0.328125 7.117188 -0.0507812 5.859375 -0.8125 C 4.597656 -1.570312 3.625 -2.664062 2.9375 -4.09375 C 2.25 -5.53125 1.90625 -7.203125 1.90625 -9.109375 C 1.90625 -12.078125 2.644531 -14.390625 4.125 -16.046875 C 5.613281 -17.703125 7.675781 -18.53125 10.3125 -18.53125 C 12.851562 -18.53125 14.875 -17.679688 16.375 -15.984375 C 17.875 -14.296875 18.625 -12.003906 18.625 -9.109375 Z M 4.765625 -9.109375 C 4.765625 -6.785156 5.226562 -5.015625 6.15625 -3.796875 C 7.082031 -2.578125 8.453125 -1.96875 10.265625 -1.96875 C 12.066406 -1.96875 13.429688 -2.570312 14.359375 -3.78125 C 15.296875 -5 15.765625 -6.773438 15.765625 -9.109375 C 15.765625 -11.421875 15.296875 -13.175781 14.359375 -14.375 C 13.429688 -15.582031 12.054688 -16.1875 10.234375 -16.1875 C 8.421875 -16.1875 7.054688 -15.59375 6.140625 -14.40625 C 5.222656 -13.226562 4.765625 -11.460938 4.765625 -9.109375 Z M 4.765625 -9.109375 "/></g></g></g><g fill="#000000" fill-opacity="1"><g transform="translate(374.835378, 732.374916)"><g/></g></g><g fill="#000000" fill-opacity="1"><g transform="translate(383.666394, 732.374916)"><g><path d="M 15.3125 -2.4375 L 15.15625 -2.4375 C 13.882812 -0.59375 11.984375 0.328125 9.453125 0.328125 C 7.066406 0.328125 5.210938 -0.484375 3.890625 -2.109375 C 2.566406 -3.734375 1.90625 -6.046875 1.90625 -9.046875 C 1.90625 -12.046875 2.566406 -14.375 3.890625 -16.03125 C 5.222656 -17.695312 7.078125 -18.53125 9.453125 -18.53125 C 11.921875 -18.53125 13.8125 -17.632812 15.125 -15.84375 L 15.34375 -15.84375 L 15.21875 -17.15625 L 15.15625 -18.421875 L 15.15625 -25.828125 L 17.90625 -25.828125 L 17.90625 0 L 15.671875 0 Z M 9.796875 -1.96875 C 11.679688 -1.96875 13.046875 -2.476562 13.890625 -3.5 C 14.734375 -4.53125 15.15625 -6.1875 15.15625 -8.46875 L 15.15625 -9.046875 C 15.15625 -11.628906 14.722656 -13.46875 13.859375 -14.5625 C 13.003906 -15.664062 11.640625 -16.21875 9.765625 -16.21875 C 8.148438 -16.21875 6.910156 -15.585938 6.046875 -14.328125 C 5.191406 -13.078125 4.765625 -11.304688 4.765625 -9.015625 C 4.765625 -6.691406 5.191406 -4.9375 6.046875 -3.75 C 6.898438 -2.5625 8.148438 -1.96875 9.796875 -1.96875 Z M 9.796875 -1.96875 "/></g></g></g><g fill="#000000" fill-opacity="1"><g transform="translate(404.498965, 732.374916)"><g><path d="M 10.609375 0.328125 C 7.921875 0.328125 5.796875 -0.488281 4.234375 -2.125 C 2.679688 -3.757812 1.90625 -6.035156 1.90625 -8.953125 C 1.90625 -11.878906 2.628906 -14.207031 4.078125 -15.9375 C 5.523438 -17.664062 7.460938 -18.53125 9.890625 -18.53125 C 12.171875 -18.53125 13.972656 -17.78125 15.296875 -16.28125 C 16.628906 -14.78125 17.296875 -12.800781 17.296875 -10.34375 L 17.296875 -8.59375 L 4.765625 -8.59375 C 4.816406 -6.457031 5.351562 -4.835938 6.375 -3.734375 C 7.40625 -2.628906 8.847656 -2.078125 10.703125 -2.078125 C 12.660156 -2.078125 14.597656 -2.484375 16.515625 -3.296875 L 16.515625 -0.84375 C 15.546875 -0.425781 14.625 -0.128906 13.75 0.046875 C 12.882812 0.234375 11.835938 0.328125 10.609375 0.328125 Z M 9.859375 -16.21875 C 8.398438 -16.21875 7.234375 -15.738281 6.359375 -14.78125 C 5.492188 -13.832031 4.984375 -12.519531 4.828125 -10.84375 L 14.34375 -10.84375 C 14.34375 -12.582031 13.953125 -13.910156 13.171875 -14.828125 C 12.398438 -15.753906 11.296875 -16.21875 9.859375 -16.21875 Z M 9.859375 -16.21875 "/></g></g></g><g fill="#000000" fill-opacity="1"><g transform="translate(423.571973, 732.374916)"><g/></g></g><g fill="#000000" fill-opacity="1"><g transform="translate(432.402988, 732.374916)"><g><path d="M 22.71875 -12.375 C 22.71875 -8.363281 21.628906 -5.296875 19.453125 -3.171875 C 17.273438 -1.054688 14.144531 0 10.0625 0 L 3.34375 0 L 3.34375 -24.265625 L 10.78125 -24.265625 C 14.550781 -24.265625 17.484375 -23.21875 19.578125 -21.125 C 21.671875 -19.039062 22.71875 -16.125 22.71875 -12.375 Z M 19.71875 -12.265625 C 19.71875 -15.429688 18.921875 -17.816406 17.328125 -19.421875 C 15.742188 -21.023438 13.390625 -21.828125 10.265625 -21.828125 L 6.15625 -21.828125 L 6.15625 -2.4375 L 9.59375 -2.4375 C 12.957031 -2.4375 15.484375 -3.265625 17.171875 -4.921875 C 18.867188 -6.578125 19.71875 -9.023438 19.71875 -12.265625 Z M 19.71875 -12.265625 "/></g></g></g><g fill="#000000" fill-opacity="1"><g transform="translate(457.186277, 732.374916)"><g><path d="M 14.109375 0 L 13.5625 -2.59375 L 13.4375 -2.59375 C 12.519531 -1.445312 11.609375 -0.671875 10.703125 -0.265625 C 9.804688 0.128906 8.6875 0.328125 7.34375 0.328125 C 5.53125 0.328125 4.113281 -0.132812 3.09375 -1.0625 C 2.070312 -1.988281 1.5625 -3.3125 1.5625 -5.03125 C 1.5625 -8.707031 4.5 -10.632812 10.375 -10.8125 L 13.46875 -10.90625 L 13.46875 -12.03125 C 13.46875 -13.457031 13.160156 -14.507812 12.546875 -15.1875 C 11.929688 -15.875 10.945312 -16.21875 9.59375 -16.21875 C 8.082031 -16.21875 6.367188 -15.753906 4.453125 -14.828125 L 3.609375 -16.9375 C 4.503906 -17.425781 5.484375 -17.804688 6.546875 -18.078125 C 7.617188 -18.359375 8.691406 -18.5 9.765625 -18.5 C 11.929688 -18.5 13.535156 -18.015625 14.578125 -17.046875 C 15.628906 -16.085938 16.15625 -14.546875 16.15625 -12.421875 L 16.15625 0 Z M 7.890625 -1.9375 C 9.597656 -1.9375 10.941406 -2.40625 11.921875 -3.34375 C 12.898438 -4.289062 13.390625 -5.613281 13.390625 -7.3125 L 13.390625 -8.953125 L 10.640625 -8.828125 C 8.453125 -8.753906 6.875 -8.414062 5.90625 -7.8125 C 4.9375 -7.207031 4.453125 -6.269531 4.453125 -5 C 4.453125 -4 4.753906 -3.238281 5.359375 -2.71875 C 5.960938 -2.195312 6.804688 -1.9375 7.890625 -1.9375 Z M 7.890625 -1.9375 "/></g></g></g><g fill="#000000" fill-opacity="1"><g transform="translate(476.093289, 732.374916)"><g><path d="M 15.3125 -2.4375 L 15.15625 -2.4375 C 13.882812 -0.59375 11.984375 0.328125 9.453125 0.328125 C 7.066406 0.328125 5.210938 -0.484375 3.890625 -2.109375 C 2.566406 -3.734375 1.90625 -6.046875 1.90625 -9.046875 C 1.90625 -12.046875 2.566406 -14.375 3.890625 -16.03125 C 5.222656 -17.695312 7.078125 -18.53125 9.453125 -18.53125 C 11.921875 -18.53125 13.8125 -17.632812 15.125 -15.84375 L 15.34375 -15.84375 L 15.21875 -17.15625 L 15.15625 -18.421875 L 15.15625 -25.828125 L 17.90625 -25.828125 L 17.90625 0 L 15.671875 0 Z M 9.796875 -1.96875 C 11.679688 -1.96875 13.046875 -2.476562 13.890625 -3.5 C 14.734375 -4.53125 15.15625 -6.1875 15.15625 -8.46875 L 15.15625 -9.046875 C 15.15625 -11.628906 14.722656 -13.46875 13.859375 -14.5625 C 13.003906 -15.664062 11.640625 -16.21875 9.765625 -16.21875 C 8.148438 -16.21875 6.910156 -15.585938 6.046875 -14.328125 C 5.191406 -13.078125 4.765625 -11.304688 4.765625 -9.015625 C 4.765625 -6.691406 5.191406 -4.9375 6.046875 -3.75 C 6.898438 -2.5625 8.148438 -1.96875 9.796875 -1.96875 Z M 9.796875 -1.96875 "/></g></g></g><g fill="#000000" fill-opacity="1"><g transform="translate(496.92586, 732.374916)"><g><path d="M 18.625 -9.109375 C 18.625 -6.148438 17.875 -3.835938 16.375 -2.171875 C 14.882812 -0.503906 12.820312 0.328125 10.1875 0.328125 C 8.5625 0.328125 7.117188 -0.0507812 5.859375 -0.8125 C 4.597656 -1.570312 3.625 -2.664062 2.9375 -4.09375 C 2.25 -5.53125 1.90625 -7.203125 1.90625 -9.109375 C 1.90625 -12.078125 2.644531 -14.390625 4.125 -16.046875 C 5.613281 -17.703125 7.675781 -18.53125 10.3125 -18.53125 C 12.851562 -18.53125 14.875 -17.679688 16.375 -15.984375 C 17.875 -14.296875 18.625 -12.003906 18.625 -9.109375 Z M 4.765625 -9.109375 C 4.765625 -6.785156 5.226562 -5.015625 6.15625 -3.796875 C 7.082031 -2.578125 8.453125 -1.96875 10.265625 -1.96875 C 12.066406 -1.96875 13.429688 -2.570312 14.359375 -3.78125 C 15.296875 -5 15.765625 -6.773438 15.765625 -9.109375 C 15.765625 -11.421875 15.296875 -13.175781 14.359375 -14.375 C 13.429688 -15.582031 12.054688 -16.1875 10.234375 -16.1875 C 8.421875 -16.1875 7.054688 -15.59375 6.140625 -14.40625 C 5.222656 -13.226562 4.765625 -11.460938 4.765625 -9.109375 Z M 4.765625 -9.109375 "/></g></g></g><g fill="#000000" fill-opacity="1"><g transform="translate(517.459648, 732.374916)"><g><path d="M 14.65625 -4.96875 C 14.65625 -3.269531 14.023438 -1.960938 12.765625 -1.046875 C 11.503906 -0.128906 9.734375 0.328125 7.453125 0.328125 C 5.035156 0.328125 3.15625 -0.0507812 1.8125 -0.8125 L 1.8125 -3.375 C 2.6875 -2.925781 3.625 -2.570312 4.625 -2.3125 C 5.625 -2.0625 6.585938 -1.9375 7.515625 -1.9375 C 8.953125 -1.9375 10.054688 -2.164062 10.828125 -2.625 C 11.609375 -3.09375 12 -3.796875 12 -4.734375 C 12 -5.441406 11.691406 -6.046875 11.078125 -6.546875 C 10.460938 -7.054688 9.265625 -7.648438 7.484375 -8.328125 C 5.796875 -8.960938 4.59375 -9.515625 3.875 -9.984375 C 3.164062 -10.453125 2.632812 -10.984375 2.28125 -11.578125 C 1.9375 -12.179688 1.765625 -12.898438 1.765625 -13.734375 C 1.765625 -15.210938 2.363281 -16.378906 3.5625 -17.234375 C 4.769531 -18.097656 6.425781 -18.53125 8.53125 -18.53125 C 10.488281 -18.53125 12.40625 -18.128906 14.28125 -17.328125 L 13.296875 -15.09375 C 11.472656 -15.84375 9.816406 -16.21875 8.328125 -16.21875 C 7.023438 -16.21875 6.039062 -16.007812 5.375 -15.59375 C 4.71875 -15.1875 4.390625 -14.625 4.390625 -13.90625 C 4.390625 -13.425781 4.507812 -13.015625 4.75 -12.671875 C 5 -12.328125 5.398438 -12 5.953125 -11.6875 C 6.515625 -11.375 7.578125 -10.925781 9.140625 -10.34375 C 11.304688 -9.5625 12.765625 -8.769531 13.515625 -7.96875 C 14.273438 -7.175781 14.65625 -6.175781 14.65625 -4.96875 Z M 14.65625 -4.96875 "/></g></g></g></svg>